<svg width="398" height="397" viewBox="0 0 398 397" fill="none" xmlns="http://www.w3.org/2000/svg">
<path d="M342.441 242.862C337.446 134.449 345.031 108.918 305.07 102.813C296.93 101.518 296.745 101.518 296.745 94.3027C296.745 64.3319 237.913 57.8567 237.358 87.8275C237.173 92.8227 238.098 99.8529 238.098 99.8529L179.821 101.888V94.1176C180.006 78.7622 166.131 63.5918 145.781 63.5918C136.9 63.5918 127.28 68.5869 126.725 78.3922C125.985 90.4175 126.541 116.318 125.986 121.868C124.321 136.299 136.16 144.439 146.52 143.329C155.216 142.589 164.836 137.409 168.352 123.349L169.646 116.873H245.868L246.423 125.754C243.278 154.429 282.5 150.174 283.98 131.119C284.165 127.604 284.535 120.943 284.905 115.393C290.825 115.393 312.84 119.648 314.875 121.313C318.02 123.903 316.91 147.769 317.095 160.164C308.215 159.609 277.135 155.909 221.078 155.169C153.921 154.244 97.6796 157.759 88.7994 157.759C77.5141 157.759 90.2796 127.604 104.71 119.833C120.25 111.693 118.215 106.143 101.01 109.473C66.599 115.948 60.1234 128.714 56.2383 198.09C52.1682 268.947 56.6085 308.724 69.3738 316.494C88.9844 328.334 236.064 333.329 258.264 333.329C269.365 333.329 336.521 275.608 336.336 275.793C340.961 272.093 343.551 266.542 343.181 260.622L342.441 242.862ZM154.476 127.419C154.476 129.824 152.626 131.674 150.221 131.859L144.486 132.414C141.711 132.784 139.49 130.564 139.305 127.789C138.565 107.993 135.421 83.7574 147.261 76.3572C149.851 74.6921 153.366 76.5422 153.551 79.5023C154.661 92.8227 154.476 91.7126 154.476 127.419ZM266.034 138.334C257.339 138.519 255.304 94.8577 263.629 89.1226C268.994 85.4225 272.694 90.2325 272.694 110.768C272.879 133.709 269.734 138.149 266.034 138.334ZM225.148 310.204C215.157 314.459 89.7244 310.019 85.0993 305.393C76.404 296.698 84.3594 169.6 84.3594 169.6C84.3594 169.6 150.591 168.49 221.447 170.525C283.979 172.375 309.88 175.52 317.281 175.89C319.316 176.075 327.825 233.612 325.975 253.777C316.17 248.597 301.185 242.862 293.97 241.012C277.134 236.572 262.704 238.792 259.744 248.042C252.159 272.833 233.103 306.874 225.148 310.204ZM246.423 311.314C249.013 306.874 248.644 309.834 264.554 279.678C281.205 247.672 277.874 250.817 291.749 255.442C298.04 257.477 312.47 262.287 321.535 264.692C301.925 283.563 275.284 297.253 246.423 311.314Z" fill="black"/>
<path d="M203.503 191.615C187.223 191.615 168.907 190.875 162.802 190.135C150.407 188.655 138.196 190.32 144.117 204.381C149.667 217.516 169.277 226.951 166.872 215.296L165.947 210.116C224.408 210.116 229.589 209.561 220.709 215.296C215.343 218.811 191.663 249.892 185.188 261.917C182.413 267.097 178.158 273.018 175.567 275.053C170.017 279.678 171.127 282.453 179.822 286.153C193.328 291.888 206.464 288.928 206.464 280.418C206.464 268.022 222.189 244.342 245.13 222.696L250.124 217.886C254.009 214.186 253.825 208.081 249.94 204.381C234.954 191.43 236.064 191.8 203.503 191.615Z" fill="black"/>
</svg>
