<svg width="397" height="397" viewBox="0 0 397 397" fill="none" xmlns="http://www.w3.org/2000/svg">
<path fill-rule="evenodd" clip-rule="evenodd" d="M156.401 100.644C156.688 115.291 173.777 138.841 185.408 134.39C190.434 132.379 190.434 130.225 184.977 114.573C171.91 77.3813 156.114 88.8691 156.401 100.644ZM251.176 133.815C247.155 145.159 261.084 147.17 270.705 136.687C280.47 125.917 290.952 109.834 296.553 98.921C302.727 88.4383 290.665 83.1252 280.613 91.7411C268.695 101.793 253.904 125.917 251.176 133.815ZM53.2984 125.056C44.3953 128.646 74.2637 165.694 86.3259 165.981C100.398 166.268 101.547 163.109 91.7823 150.042C76.4174 129.364 63.4938 120.891 53.2984 125.056ZM188.28 178.33C182.967 183.644 176.648 190.967 174.207 194.413C153.242 225.718 152.955 226.005 143.334 218.681C121.076 202.024 84.4587 190.68 91.6386 219.687C96.0901 237.206 109.301 269.228 112.748 279.854C121.651 307.856 126.389 312.451 142.185 308.717C181.387 299.24 237.391 298.953 277.455 307.999C287.363 310.297 287.937 309.148 288.942 289.188C290.953 248.837 314.215 209.491 314.215 196.855C314.215 182.638 287.363 193.265 250.889 221.841L247.155 224.713L241.842 221.123C230.928 213.799 225.472 219.543 231.646 231.749C236.672 241.657 240.837 244.96 251.894 239.647C258.212 236.631 266.972 230.887 279.321 222.128C284.203 218.681 288.224 216.24 288.224 216.671C288.224 218.681 279.465 256.304 279.465 256.448L257.638 254.581C240.262 253.863 238.252 263.053 256.202 265.781C258.068 266.069 276.449 268.366 276.449 268.366C276.449 268.366 275.731 276.408 273.721 281.003C271.567 285.598 267.977 286.747 262.089 284.736C215.994 269.515 140.893 288.039 140.749 288.039C138.021 288.47 113.035 222.559 115.045 220.548C115.333 220.261 118.348 222.128 121.794 224.713C160.709 253.001 164.73 252.14 190.434 210.927L202.496 191.541L207.235 198.578C221.02 219.112 240.55 210.066 229.636 194.988C225.903 189.962 219.728 182.495 209.82 170.863C205.368 165.55 198.763 167.848 188.28 178.33ZM375.101 176.176C369.931 179.192 342.935 205.04 339.776 209.922C333.027 220.692 347.099 223.133 359.88 213.368C374.814 202.024 395.923 182.495 395.923 179.91C396.066 174.741 382.137 172.156 375.101 176.176ZM19.4092 244.96C40.3745 250.129 52.4364 251.422 57.1751 248.837C64.9294 244.673 61.3396 241.657 42.9591 237.062C41.2359 236.631 24.2912 231.892 12.6598 231.892C4.33116 231.892 -14.1927 236.487 19.4092 244.96Z" fill="black"/>
</svg>
