<svg width="397" height="397" viewBox="0 0 397 397" fill="none" xmlns="http://www.w3.org/2000/svg">
<path d="M352.716 177.521C341.677 183.231 340.154 182.85 327.592 168.005C321.311 160.582 311.415 151.446 305.515 147.639L295.046 140.787L301.898 134.316C316.172 121.183 303.421 112.809 285.149 123.086L274.871 128.796C262.309 124.228 240.421 116.044 226.907 113.76C214.726 111.667 215.488 111.857 215.488 111.667C215.488 111.857 215.487 112.428 216.249 97.9628C216.629 91.8722 212.062 86.7333 206.162 86.3526C193.79 85.401 188.27 88.6366 190.745 101.198L192.457 109.383C192.457 109.383 154.01 113.57 144.875 114.712C126.983 116.996 125.652 116.615 125.652 109.383C125.652 95.6789 89.8691 94.7272 100.337 114.712C102.812 119.47 104.334 123.657 103.953 124.228C103.573 124.609 97.1017 128.035 89.8691 131.651C82.6366 135.268 70.8359 143.452 63.984 149.543L51.2323 160.772L38.4798 154.681C19.066 145.546 13.9277 152.588 26.6798 171.24C33.3414 181.137 33.3412 181.137 28.3926 188.37C15.8308 206.261 23.8241 224.343 59.2257 258.412C95.7692 293.623 176.279 322.363 192.648 305.994C197.025 301.617 185.415 286.961 177.612 286.961C122.797 286.961 44.7607 235.191 52.7546 204.167C62.4615 166.482 140.497 117.377 225.956 132.032C274.49 140.216 303.801 163.627 326.261 211.781C330.257 220.346 333.873 228.149 334.444 228.91C339.012 236.904 277.916 266.786 227.288 281.442C210.159 286.39 208.065 287.723 208.065 293.433C208.065 313.988 253.173 309.611 285.149 286.01C322.454 258.602 368.324 242.234 354.81 212.352C351.955 205.88 350.813 200.741 352.335 200.17C361.852 196.745 376.127 186.467 377.078 182.47C378.982 173.524 365.849 170.479 352.716 177.521Z" fill="black"/>
<path d="M261.927 202.645C261.356 181.328 252.031 161.724 240.42 155.443C236.424 153.349 230.714 155.824 232.807 161.914C244.417 197.125 205.59 200.742 193.98 193.128C166.382 174.666 179.515 155.062 196.835 149.543C206.351 146.497 202.735 140.026 179.705 140.407C142.02 141.168 117.086 173.144 117.276 201.122C117.466 237.856 146.207 275.922 195.693 273.258C240.801 271.164 262.879 244.898 261.927 202.645Z" fill="black"/>
</svg>
