<svg width="397" height="397" viewBox="0 0 397 397" fill="none" xmlns="http://www.w3.org/2000/svg">
<path d="M241.093 65.9849C248.197 51.5405 238.962 41.1216 229.135 52.6061C221.912 61.1307 211.731 85.4021 213.507 90.0196C217.651 100.557 229.016 90.6115 241.093 65.9849Z" fill="black"/>
<path d="M170.41 95.1087C177.869 97.4767 180.474 93.0959 179.646 79.5986C177.87 52.9593 169.7 41.9484 155.729 47.513C149.099 50.1178 162.123 92.504 170.41 95.1087Z" fill="black"/>
<path d="M95.7028 101.979C112.515 114.529 124.236 120.093 130.156 117.962C137.497 115.357 136.313 112.871 122.934 102.334C105.885 88.7182 96.5311 84.6927 87.533 87.0606C81.1395 88.7182 83.1527 92.5069 95.7028 101.979Z" fill="black"/>
<path d="M240.974 106.476C236.948 110.857 236.949 110.975 240.027 113.225C248.788 119.618 258.142 114.527 295.2 82.915C305.145 74.3904 288.688 67.6419 277.085 75.5745C271.047 79.7184 245.71 101.385 240.974 106.476Z" fill="black"/>
<path d="M381.868 319.828C377.724 316.395 375.001 310.001 373.817 300.885C372.988 294.61 359.728 190.894 353.69 163.544C348.717 140.812 334.746 130.038 323.617 129.446C316.631 129.091 312.606 133.708 309.764 131.932C302.068 127.078 299.937 124.828 292.36 125.539C288.808 125.775 280.875 127.907 278.152 130.275C276.376 131.695 274.127 131.695 269.154 130.393C244.764 123.881 233.99 147.087 245.001 182.488C251.276 202.734 260.274 193.854 257.669 170.056C254.236 138.562 254.946 135.247 264.773 138.799C270.101 140.693 270.338 141.167 269.864 147.679C269.154 156.795 275.547 198.471 277.915 200.01C284.427 204.273 289.4 196.695 287.269 185.448C281.467 153.954 285.375 134.418 296.977 137.378C300.529 138.326 303.134 141.522 303.134 145.193C303.726 180.83 304.081 204.628 314.973 204.628C321.84 204.628 321.841 204.865 320.301 173.963C318.644 141.167 322.551 139.391 328.353 141.167C336.759 143.772 337.588 163.426 338.416 168.754C338.416 168.872 357.123 291.768 357.123 292.005C359.372 319.947 376.777 344.455 388.972 336.641C391.458 334.983 386.84 323.972 381.868 319.828Z" fill="black"/>
<path d="M89.4271 170.645C89.4271 151.583 89.6638 150.043 93.4525 145.781C100.201 137.849 102.332 145.071 103.635 181.537C104.582 208.176 104.701 208.532 110.384 210.189C117.724 212.439 118.435 209.005 117.606 178.932C116.777 151.819 116.895 150.872 120.447 147.32C127.788 139.861 129.327 142.821 132.406 168.513C134.182 184.142 133.944 192.903 131.458 206.401C130.866 209.834 131.458 210.9 134.299 211.728C141.995 213.741 143.298 211.136 145.547 188.641C149.454 149.688 144.127 137.967 122.105 137.73C115.593 137.612 108.134 136.783 105.529 135.599C102.924 134.533 97.0045 133.705 92.387 133.823C87.7696 133.941 80.192 133.586 75.6929 132.994C70.2467 132.284 65.748 132.758 62.5513 134.178C48.9357 140.453 46.5677 147.794 30.5841 234.105C27.861 249.023 24.7825 267.612 23.9538 275.308C22.2962 289.634 17.3233 306.328 10.6931 320.062C6.07558 329.533 7.14138 332.967 14.482 332.967C27.6241 332.967 39.9374 311.655 42.8973 283.595C44.4365 268.677 47.1597 262.521 51.8956 228.422C60.8938 162.712 62.5509 155.135 69.1811 147.439C78.2977 136.901 77.4689 140.335 78.6529 201.665C78.6529 204.269 81.021 206.282 83.6258 206.045C88.3616 205.69 89.4271 201.309 89.4271 170.645Z" fill="black"/>
<path d="M310.237 333.918C302.778 320.184 302.186 319.71 288.925 318.289C272.823 316.513 260.391 310.238 255.064 301.24C243.342 281.231 226.885 228.071 228.78 216.349C231.385 199.892 236.831 201.076 245.71 219.783C252.696 234.464 257.314 239.674 273.771 251.987C281.111 257.433 285.61 262.288 288.57 268.089C292.241 275.193 293.543 276.377 297.805 276.377C312.368 276.377 294.964 244.765 277.204 239.082C269.627 236.714 267.259 234.701 267.259 230.794C267.259 211.258 238.725 190.065 223.57 198.353C210.547 205.575 209.481 216.468 218.479 249.264C235.765 312.133 245.474 324.92 277.915 327.761C290.583 328.945 293.661 331.076 300.054 343.034C308.816 359.491 318.88 348.244 316.867 345.639C316.157 344.573 313.197 339.364 310.237 333.918Z" fill="black"/>
<path d="M152.888 206.05C144.245 210.075 134.892 220.021 130.867 229.492C127.907 236.478 127.078 237.188 120.448 238.254C106.003 240.503 93.4534 251.277 91.559 262.762C89.9015 272.944 100.32 278.153 104.109 268.919C109.081 256.96 118.908 247.725 129.683 245.002C136.313 243.345 149.574 230.084 160.821 214.219C167.925 204.155 172.661 217.771 167.688 233.636C152.06 282.653 131.814 309.647 108.49 312.252C98.6626 313.436 96.5312 315.449 88.125 332.143C82.5604 343.035 82.4422 343.627 85.4021 345.758C92.506 350.968 99.2547 345.995 103.872 332.261C107.069 322.789 107.424 322.316 114.646 320.54C141.878 313.554 155.375 297.452 174.91 249.028C189.828 212.088 180.238 193.381 152.888 206.05Z" fill="black"/>
</svg>
