<svg width="397" height="397" viewBox="0 0 397 397" fill="none" xmlns="http://www.w3.org/2000/svg">
<path fill-rule="evenodd" clip-rule="evenodd" d="M128.706 129.376C129.998 133.253 131.003 136.987 131.003 137.705C131.003 138.279 126.121 138.854 120.09 138.854C110.899 138.854 88.3547 141.438 77.1541 143.88C73.2769 144.741 63.6557 152.352 60.4966 157.234C55.3271 164.988 60.6401 190.836 68.2507 194.857C70.6919 196.149 70.8361 196.58 68.8257 200.457C63.6562 210.365 67.3896 225.299 78.0158 236.787C83.1853 242.388 83.9034 243.967 83.9034 249.855C83.9034 258.758 87.9239 266.081 97.2578 274.553C101.853 278.718 105.443 283.313 106.017 285.754C112.048 310.453 150.245 319.356 210.844 310.166C243.44 305.283 243.871 305.14 246.743 308.012C251.338 312.32 256.938 313.899 267.277 313.899C275.893 313.899 277.186 314.33 279.771 317.633C283.504 322.372 293.269 324.095 305.618 322.371C310.357 321.653 316.819 321.079 320.122 321.079C329.312 321.079 332.471 317.92 328.02 313.325C324.86 310.022 323.424 309.591 313.66 309.591C297.29 309.591 298.438 314.474 294.848 232.048C293.987 213.524 292.981 189.4 292.407 178.487C291.258 154.075 289.678 155.655 315.239 156.803C337.353 157.809 341.661 156.803 336.778 151.347C330.747 144.597 311.792 140.29 288.673 140.29H283.791C281.781 140.29 279.914 141.151 278.621 142.587C277.329 144.023 276.611 145.89 276.611 147.9C276.755 151.059 276.899 153.788 276.899 153.357L259.667 153.644C242.722 153.931 242.435 153.931 242.579 157.09C242.722 161.398 241.43 161.255 231.522 155.224C222.475 149.767 218.598 144.31 198.638 108.985C191.889 96.9231 186.144 88.5944 180.975 82.9941C160.44 60.5929 113.341 80.2656 128.706 129.376ZM162.164 83.8557C166.329 87.1584 170.924 96.6358 175.806 112.144C185.858 144.023 208.403 166.999 239.563 177.051L243.871 178.487C244.158 187.533 245.594 259.906 246.025 286.185L231.952 287.046C217.592 288.052 177.673 293.796 165.036 296.811C145.938 301.263 123.967 291.067 123.967 277.856C123.967 275.559 123.249 273.692 122.531 273.692C113.054 273.692 98.5504 249.28 104.007 242.675C104.869 241.67 103.145 239.228 99.5555 235.638C90.3652 226.879 89.0727 223.289 90.0779 208.786C90.9395 196.723 90.7961 196.293 87.4934 193.995C77.8723 187.677 76.0054 167.717 84.4777 162.26C86.6317 160.824 97.5447 159.244 117.074 157.378C156.707 153.644 154.266 156.516 147.947 121.335C142.491 93.1895 149.815 73.9474 162.164 83.8557ZM277.903 298.103C277.76 298.103 264.836 298.103 265.267 298.103L259.954 168.865C260.241 168.865 274.745 168.865 274.17 168.865C276.037 239.085 273.595 211.227 277.903 298.103Z" fill="black"/>
</svg>
