<svg width="266" height="288" viewBox="0 0 266 288" fill="none" xmlns="http://www.w3.org/2000/svg">
<path fill-rule="evenodd" clip-rule="evenodd" d="M72.4024 3.14179C25.0535 12.0818 0.717124 47.5107 0.717124 108.27C0.551568 170.519 63.2969 208.762 127.864 185.75L139.784 181.445C149.552 191.71 151.207 191.71 140.777 198.001C132.5 202.968 133.327 208.1 138.625 210.086C145.744 212.735 188.954 254.29 194.749 264.389C216.105 301.639 269.414 288.56 265.772 259.422C264.116 246.178 254.017 230.781 242.097 219.854C228.853 207.603 221.403 197.67 211.635 179.128C202.198 161.082 193.755 157.109 181.504 164.559C176.207 167.704 175.71 167.87 172.895 165.221C167.101 160.089 167.432 156.612 174.551 145.851C201.702 104.131 203.191 67.7085 179.186 38.7363C145.744 -1.65932 117.103 12.9096 136.639 25.4918C184.153 55.9541 181.67 117.872 131.01 164.559C102.865 190.551 46.2453 176.644 31.6764 140.222C8.66412 82.2774 46.5757 5.79068 107.997 18.0418C129.188 23.5051 137.631 -9.10933 72.4024 3.14179ZM65.7802 44.3652C58.6613 50.3252 63.2969 55.4574 76.5413 46.3518C85.8125 40.0607 90.2831 38.9018 98.7264 40.8885C109.819 43.3718 116.606 40.5574 113.129 34.9285C111.97 32.9418 87.6336 25.9885 65.7802 44.3652ZM132.168 42.2129C123.228 41.7162 120.91 46.683 127.036 53.1396C134.651 61.2519 149.883 62.5763 149.055 55.1263C148.559 49.9941 138.956 42.544 132.168 42.2129ZM189.782 180.949C191.107 186.412 204.185 205.616 211.139 212.735C219.582 221.179 223.224 226.808 234.151 238.728C256.335 263.064 229.846 287.235 208.986 256.773C182.663 218.364 158.16 206.279 158.491 201.809C158.988 196.18 188.623 176.313 189.782 180.949Z" fill="black"/>
</svg>
