<svg width="275" height="362" viewBox="0 0 275 362" fill="none" xmlns="http://www.w3.org/2000/svg">
<path d="M229.167 297.474C227 302.807 227.833 323.809 230.167 326.809C233.667 331.142 240.167 330.307 241.333 325.474C245 310.64 234 285.307 229.167 297.474Z" fill="black"/>
<path d="M47.8331 91.6414C46.8331 98.9743 47.3334 117.974 47.6667 129.308C47.8334 132.808 50.4999 135.474 53.8332 135.808C63.5001 136.641 65.5001 118.308 59.3334 88.1413C57.8334 80.6413 49.1664 83.1414 47.8331 91.6414Z" fill="black"/>
<path d="M86.4999 76.1411C100.833 76.1411 108.833 73.9749 108.833 69.9749C108.833 64.8082 96.8333 63.4746 78.8333 66.3079C59.4999 69.6412 64.6666 76.1411 86.4999 76.1411Z" fill="black"/>
<path d="M47.4999 2.30722C43.4999 3.97389 44.6665 55.6402 48.6665 57.8069C59.6667 63.6402 64.5 57.1407 63.1667 39.1407C60 1.64072 58.5 -2.19278 47.4999 2.30722Z" fill="black"/>
<path d="M14.4998 65.9751C3.33317 67.3084 0.5 68.4744 0.5 71.9744C0.5 77.4744 33.8333 78.8078 41.6667 73.6411C51 67.4744 36.4998 63.3084 14.4998 65.9751Z" fill="black"/>
<path d="M231 275.807C234 275.474 236.333 273.14 236.333 270.14C237.167 250.474 237.833 237.474 225.667 242.307C223.333 243.307 222.833 255.64 224.667 268.64C225.833 276.14 226 276.307 231 275.807Z" fill="black"/>
<path d="M244.167 282.976C239 285.143 239.5 289.141 245.167 290.308C250.167 291.474 269.833 288.643 273.667 286.309C280.667 281.809 254.167 278.809 244.167 282.976Z" fill="black"/>
<path d="M221.333 282.806C216 280.806 214.833 280.806 206.333 283.306C193.5 287.139 198.833 292.306 213.667 290.306C224 288.973 227.667 285.306 221.333 282.806Z" fill="black"/>
<path d="M202 204.307C206.167 197.307 204.833 188.474 199 182.974C184.5 169.307 170.5 145.974 162.333 121.807C157.667 108.307 145.333 54.1412 145.333 47.3079C145.333 38.6412 135.833 34.3075 129.833 40.3075C128.5 41.6409 126.833 47.4747 126.333 53.308C123.167 82.6413 105.833 149.141 95.9999 169.141C91.1666 178.974 81.1666 188.474 70.6666 193.141C61.6666 197.141 61.6666 197.807 72.8332 207.474C94.9999 226.807 111.333 264.974 122.833 324.641C133.167 378.141 151.333 360.807 149.333 349.974C145.167 328.974 169.667 258.474 197.667 211.474L202 204.307ZM180.667 197.474C164.5 218.141 147 250.474 138.667 275.307L134.833 286.974L132.667 276.141C117.5 202.641 86.6666 198.974 83.3332 195.807C86.9999 191.974 120.167 171.141 135.5 123.141C140.167 108.641 139.333 108.641 143.833 122.307C152.333 148.141 164.167 169.141 177.833 183.141L185.667 191.141L180.667 197.474Z" fill="black"/>
</svg>
