<svg width="365" height="387" viewBox="0 0 365 387" fill="none" xmlns="http://www.w3.org/2000/svg">
<path d="M98.7781 316.232C91.2783 310.732 81.7783 313.232 71.2783 323.399C56.7783 337.232 56.2785 342.566 69.2785 342.899C80.9451 343.232 105.445 321.066 98.7781 316.232Z" fill="black"/>
<path d="M97.9452 288.066C97.9452 283.733 82.4452 279.233 76.2786 281.899C65.9452 286.233 7.77891 331.899 3.61224 333.566C-6.55443 337.566 9.11224 345.733 20.7789 342.566C31.4456 339.566 97.9452 292.733 97.9452 288.066Z" fill="black"/>
<path d="M49.9455 117.9C62.4455 118.066 65.7785 113.733 57.9452 107.233C42.7785 94.3998 30.9455 90.0666 21.6122 94.0666C10.6122 98.5666 33.1122 117.566 49.9455 117.9Z" fill="black"/>
<path d="M244.778 135.566C253.778 135.733 270.612 125.233 269.612 120.066C267.778 110.733 249.112 110.733 239.112 120.066C228.278 130.066 230.112 135.4 244.778 135.566Z" fill="black"/>
<path d="M86.9453 113.066C103.278 116.066 102.112 108.066 81.9453 79.3996C44.7787 26.5663 32.2785 13.2329 23.4452 16.8996C11.6118 21.5663 69.9453 109.733 86.9453 113.066Z" fill="black"/>
<path d="M340.445 87.8996C332.278 91.3996 271.445 131.733 256.278 143.566C252.945 146.233 264.445 150.9 272.945 150.233C281.445 149.566 284.612 147.9 318.778 125.4C338.945 112.066 357.612 99.8993 360.112 98.3993C372.112 90.8993 354.778 81.7329 340.445 87.8996Z" fill="black"/>
<path d="M274.112 302.733C265.112 294.4 252.612 289.733 249.112 293.4C246.945 295.566 251.612 300.9 260.112 305.733C273.778 313.566 283.612 311.4 274.112 302.733Z" fill="black"/>
<path d="M250.945 212.566C259.945 207.9 259.778 206.566 249.612 196.566C218.445 166.066 192.445 95.7329 186.612 26.7329C184.445 1.89954 161.278 -21.6005 148.945 37.5662C133.278 112.233 96.2788 188.233 71.7788 196.066C55.2788 201.4 57.1123 212.566 74.4456 212.566C100.112 212.566 115.778 235.733 125.778 289.066C132.278 323.733 143.278 377.4 144.278 380.233C146.778 386.9 169.612 397.733 175.612 353.4C183.945 290.733 216.612 230.066 250.945 212.566ZM222.112 204.9C194.612 224.4 167.445 262.233 160.445 291.066C158.778 297.733 156.945 296.733 155.612 288.566C149.112 246.9 135.278 221.9 111.945 208.733L102.945 203.566C126.945 178.066 137.778 168.9 165.612 90.7334C166.778 87.4 166.945 87.9 172.945 108.067C184.112 146.4 198.112 173.733 216.112 192.566C225.112 202.233 225.278 202.733 222.112 204.9Z" fill="black"/>
<path d="M219.111 305.732C214.278 308.565 215.611 311.232 229.778 329.232C254.611 360.732 267.778 370.065 275.945 361.899C279.778 358.065 277.778 354.565 259.611 332.232C237.111 304.565 229.611 299.732 219.111 305.732Z" fill="black"/>
</svg>
