<svg width="296" height="478" viewBox="0 0 296 478" fill="none" xmlns="http://www.w3.org/2000/svg">
<path d="M167.845 169.126C147.012 147.294 130.512 119.127 119.679 87.1266C111.345 62.4599 99.3452 16.9601 99.3452 9.79345C99.3452 -1.37317 79.3452 -5.87301 79.3452 15.7936C79.3452 26.9603 72.0119 91.7935 49.6787 130.627C28.5121 167.626 20.3454 177.128 5.51205 183.461C-2.98795 186.961 -1.65477 189.626 10.3452 193.793C40.0119 204.126 53.3454 228.96 80.1786 323.626C95.8452 378.626 105.512 376.96 113.679 317.793C121.679 258.96 151.345 192.126 172.512 184.793C179.512 182.46 179.012 180.96 167.845 169.126ZM97.8452 275.46L94.6786 290.46C93.3452 286.96 76.0119 213.46 45.5121 193.793C37.1787 188.46 35.6787 186.293 40.5121 186.293C56.0121 186.293 80.1786 145.127 87.5119 105.46C91.0119 87.2933 91.5119 86.6266 95.8452 97.96C104.845 122.127 119.679 144.96 140.012 166.126L153.345 180.128C151.512 182.295 114.012 196.96 97.8452 275.46Z" fill="black"/>
<path d="M288.012 365.46C261.845 344.126 242.679 306.295 242.679 275.128C242.679 261.461 224.512 245.793 217.679 284.626C209.345 332.793 203.845 345.96 185.012 364.793C169.512 380.126 169.345 379.126 188.845 384.46C207.012 389.46 220.512 413.461 229.345 456.628C234.845 483.461 254.679 484.626 255.512 457.293C256.679 418.793 265.512 397.293 285.512 384.626C298.179 376.46 298.512 373.96 288.012 365.46ZM268.012 374.295C262.179 376.295 246.345 390.126 242.679 396.126C237.679 404.626 237.845 404.626 232.012 395.293C227.012 387.293 215.179 378.46 207.345 376.96C201.345 375.626 201.512 375.295 211.179 365.795C215.845 361.295 222.345 352.126 225.679 345.46C233.179 330.96 232.179 331.128 239.345 342.628C244.845 351.295 253.845 360.793 265.179 369.793C268.345 371.96 269.345 373.795 268.012 374.295Z" fill="black"/>
</svg>
