<svg width="257" height="442" viewBox="0 0 257 442" fill="none" xmlns="http://www.w3.org/2000/svg">
<path d="M26.517 361.951C21.1836 370.951 42.1836 382.618 115.85 411.951C193.85 442.951 212.185 446.951 214.518 434.618C217.518 417.618 35.517 347.618 26.517 361.951Z" fill="black"/>
<path d="M135.184 7.61631C107.184 -6.38385 101.184 -3.38415 52.1836 48.9493C1.51697 102.949 -5.81603 114.617 3.5173 124.95C20.5173 143.617 38.5176 133.617 104.518 69.95C153.184 22.95 155.851 17.9496 135.184 7.61631Z" fill="black"/>
<path d="M241.851 181.284C221.851 170.951 212.518 171.285 176.851 183.285C71.1839 219.285 -7.15006 236.617 32.1833 255.951C48.1833 263.951 68.5173 259.284 193.517 221.284C262.518 199.951 268.518 195.284 241.851 181.284Z" fill="black"/>
</svg>
