<svg width="236" height="249" viewBox="0 0 236 249" fill="none" xmlns="http://www.w3.org/2000/svg">
<path d="M180.593 68.1579C224.593 31.3244 241.426 12.6576 233.426 9.65756C229.26 8.15756 227.426 8.49073 220.093 11.9907C205.927 18.9907 154.427 62.9912 154.427 68.1579C154.427 75.3246 171.76 75.4912 180.593 68.1579Z" fill="black"/>
<path d="M65.0932 69.4903C70.5932 65.8236 70.2598 65.1569 48.9265 41.9903C37.5932 29.4894 28.2605 21.6561 21.4272 18.6561C12.0938 14.4894 7.59368 20.1564 11.2603 24.8231C42.5932 65.1569 55.5932 75.8236 65.0932 69.4903Z" fill="black"/>
<path d="M213.427 123.824C203.26 120.824 151.262 104.324 147.428 102.824C145.595 102.158 144.262 98.8243 143.595 93.1576C138.095 50.8243 129.427 7.32328 125.593 2.48995C122.76 -1.17672 113.093 -0.010055 110.427 4.15661C107.76 8.32328 95.4266 50.4909 88.0933 81.1576L83.2616 101.158C-11.4057 131.158 -16.5727 130.491 26.2606 143.658L64.0949 155.324C85.5949 161.991 86.0933 162.156 87.2599 167.489C88.9266 175.156 99.7599 212.491 103.927 230.324C112.76 268.658 130.762 244.991 146.595 173.658L150.262 157.324C152.262 156.991 164.927 155.824 219.593 143.991C232.093 141.158 228.427 128.158 213.427 123.824ZM189.76 131.991C188.427 133.158 151.927 141.991 144.76 141.991C136.093 141.991 134.093 146.158 124.26 185.324C117.76 211.158 117.262 211.656 113.595 196.656C109.095 177.823 99.9266 155.824 98.7599 150.658C97.7599 145.991 88.4266 142.658 52.2599 133.991C34.0941 129.658 31.2608 128.158 38.0933 126.158C46.5933 123.658 87.4266 110.324 92.0933 110.324C96.5933 110.324 100.427 106.991 101.76 101.991L114.76 51.3243C117.093 42.491 117.095 42.4909 123.595 76.9909C131.095 115.824 130.26 114.156 142.26 116.656C157.26 119.823 191.26 130.658 189.76 131.991Z" fill="black"/>
<path d="M159.427 176.324C159.427 179.991 203.426 224.491 209.593 226.991C222.593 232.324 225.927 225.322 215.593 214.156C187.76 183.656 159.427 164.657 159.427 176.324Z" fill="black"/>
<path d="M31.0941 186.992C-0.905939 208.658 -4.57278 213.658 11.4272 213.658C19.2606 213.658 68.7599 179.325 67.2599 174.825C64.9266 167.825 53.7599 171.492 31.0941 186.992Z" fill="black"/>
</svg>
