<svg width="252" height="321" viewBox="0 0 252 321" fill="none" xmlns="http://www.w3.org/2000/svg">
<path d="M177.435 70.1198C192.102 72.7864 196.602 11.4534 182.435 2.1201C177.268 -1.3799 171.768 0.7861 169.268 7.2861C157.935 35.2861 162.102 67.2864 177.435 70.1198Z" fill="black"/>
<path d="M115.102 80.2879C123.102 84.4546 152.602 85.6213 154.102 81.7879C157.435 72.9546 133.935 66.4548 113.435 70.2881C107.768 71.4548 108.768 76.9548 115.102 80.2879Z" fill="black"/>
<path d="M176.102 152.62C186.935 152.62 188.935 104.62 178.435 96.6202C174.102 93.4535 165.102 93.7868 163.269 97.2868C151.102 119.787 158.769 152.62 176.102 152.62Z" fill="black"/>
<path d="M172.935 174.788C168.102 177.288 166.935 182.455 165.435 209.955C163.935 240.121 189.435 266.621 194.102 199.788C195.435 179.788 185.768 168.455 172.935 174.788Z" fill="black"/>
<path d="M228.267 86.6199C244.267 87.7865 249.768 85.6198 246.435 79.2865C242.768 72.4528 196.102 66.9525 193.768 73.1192C191.102 79.9532 203.767 84.7865 228.267 86.6199Z" fill="black"/>
<path d="M30.2683 165.12C13.9349 163.453 6.4346 161.786 2.10127 164.953C-5.89873 170.786 12.1014 178.953 34.2681 179.786C55.9351 180.453 52.4351 167.453 30.2683 165.12Z" fill="black"/>
<path d="M140.602 238.454C129.268 237.121 110.768 236.287 107.602 237.121C93.7685 240.454 111.935 250.787 134.435 252.621C162.935 254.954 168.768 241.954 140.602 238.454Z" fill="black"/>
<path d="M161.602 268.954C148.935 292.454 156.435 320.954 175.268 320.954C182.768 320.954 192.935 283.62 187.935 274.12C184.268 267.287 164.435 263.454 161.602 268.954Z" fill="black"/>
<path d="M68.9352 189.954C61.4352 185.121 51.7686 184.787 49.7686 189.454C47.2686 195.454 44.9352 224.621 46.7686 228.121C50.1019 234.787 69.9352 238.787 72.1019 233.287C75.2686 224.621 73.1019 192.621 68.9352 189.954Z" fill="black"/>
<path d="M247.602 246.453C239.435 239.12 196.102 235.453 193.602 241.787C190.768 249.287 201.768 253.62 227.435 254.953C251.768 256.287 256.435 254.287 247.602 246.453Z" fill="black"/>
<path d="M53.6018 100.454C45.7685 101.787 43.2685 141.787 50.4351 150.454C56.4351 157.62 75.2685 165.12 74.7685 142.787C74.1018 110.787 73.4351 97.2869 53.6018 100.454Z" fill="black"/>
<path d="M118.602 164.788C110.602 161.455 78.2685 161.621 77.1019 165.121C74.2685 172.288 87.6018 177.621 108.435 177.621C129.435 177.621 134.435 171.455 118.602 164.788Z" fill="black"/>
</svg>
