<svg width="398" height="393" viewBox="0 0 398 393" fill="none" xmlns="http://www.w3.org/2000/svg">
<path fill-rule="evenodd" clip-rule="evenodd" d="M36.0306 3.90684C22.8306 11.9068 1.23135 87.3062 11.8314 88.3062C19.0314 88.9062 27.231 83.7066 31.431 75.7066C34.631 69.9066 53.0306 3.50663 52.0306 1.70663C50.4306 -1.29337 42.6306 -0.0931642 36.0306 3.90684ZM0.430953 179.907C-1.96905 229.107 5.63135 243.905 23.8314 224.305C30.0314 217.505 32.4306 169.505 30.0306 143.106C27.6306 115.706 3.43095 120.107 0.430953 179.907ZM30.2308 280.907C15.2308 291.307 24.8308 325.907 49.2308 349.907C76.0307 376.307 109.231 386.705 123.431 373.105C132.031 364.905 131.231 362.705 116.631 356.105C82.0312 340.505 61.8312 319.107 51.6312 287.707C48.6312 278.107 38.6308 274.907 30.2308 280.907ZM260.23 281.305C256.03 284.905 256.032 285.505 258.632 297.105C260.032 303.705 263.832 321.507 263.832 321.507L233.03 331.707C202.23 341.907 170.032 350.105 160.632 350.105C150.632 350.105 155.63 357.707 173.43 368.907C187.43 377.907 232.632 367.307 269.832 346.707C271.232 345.907 279.43 373.107 280.03 380.907C281.03 394.507 306.032 401.507 323.632 369.707C333.232 352.507 374.83 310.307 388.23 304.507C406.03 296.707 396.43 287.105 373.23 289.105C336.63 292.305 272.63 270.505 260.23 281.305Z" fill="black"/>
</svg>
