<svg width="253" height="326" viewBox="0 0 253 326" fill="none" xmlns="http://www.w3.org/2000/svg">
<path fill-rule="evenodd" clip-rule="evenodd" d="M145.961 8.27979C111.619 25.7294 34.2085 111.864 8.96221 160.129C-6.25982 189.274 -4.40293 190.944 44.7902 193.729L79.875 195.771C16.2023 307.151 22.6994 295.271 22.1425 296.385C8.21986 320.331 27.1546 336.296 47.2031 317.547C47.3888 317.361 219.472 183.704 250.287 139.338C253.814 134.326 252.886 128.571 245.09 122.816C232.281 113.349 215.017 110.379 152.087 105.181C142.248 104.438 137.793 103.325 138.536 101.84C143.177 90.516 160.997 42.9934 169.536 24.4299C179.56 2.71066 178.633 -8.42732 145.961 8.27979ZM133.152 49.862C131.481 53.7603 110.875 103.139 109.947 105.181C105.121 114.834 108.277 119.846 120.343 121.146C160.44 125.415 176.404 126.9 192.555 127.643C219.286 128.942 219.472 127.828 191.256 156.23C161.183 186.675 84.3302 257.216 82.6595 255.545C81.1744 254.06 105.864 206.909 112.547 198.184C124.613 182.405 120.9 180.177 82.4737 180.177C65.2097 180.177 54.4429 179.806 46.275 179.249C38.6639 178.692 34.0229 170.524 37.7356 163.656C51.6582 138.224 76.5336 106.481 117.93 61.0001C136.865 40.5803 137.236 40.209 133.152 49.862Z" fill="black"/>
</svg>
