<svg width="397" height="397" viewBox="0 0 397 397" fill="none" xmlns="http://www.w3.org/2000/svg">
<path fill-rule="evenodd" clip-rule="evenodd" d="M157.439 86.2149C135.574 104.756 130.501 107.205 108.986 109.479C80.9985 112.453 81.5231 112.278 82.5726 117.875C83.6221 123.823 85.1969 146.388 85.7217 152.335C64.7312 176.299 64.2061 175.249 66.1303 188.718C66.8299 194.141 65.4307 244.518 68.9291 291.222C69.8038 302.941 73.6518 308.364 84.4969 313.961C105.487 324.456 122.804 318.334 106.187 306.265C91.3186 295.42 89.9198 290.697 88.3455 247.666C87.8207 233.673 86.5961 214.607 85.5466 205.161C81.3485 167.728 94.1179 183.296 93.5931 186.444C92.5436 194.84 96.7415 201.487 115.283 211.108C126.478 216.88 168.284 243.643 184.901 249.241C209.565 257.812 219.71 242.419 277.784 202.712C288.454 195.54 295.451 189.068 299.474 182.771C309.619 167.203 310.669 246.092 300.699 279.677C294.052 302.067 292.128 302.766 228.282 304.341C162.862 305.915 131.725 310.113 133.3 314.836C137.148 326.381 282.157 329.004 305.072 318.159C315.217 313.262 326.237 288.423 328.336 276.353C331.484 258.511 331.66 231.049 328.861 194.491C326.937 168.253 324.313 162.48 309.794 149.536C304.721 144.988 304.372 136.417 308.92 119.275C310.669 112.628 312.943 101.958 297.025 101.958C281.108 101.958 255.569 103.007 251.196 103.007C244.899 99.159 218.836 84.2907 214.288 79.7428C210.265 76.5942 185.776 62.2508 157.439 86.2149ZM214.288 96.0104C220.236 99.8586 225.133 103.182 225.133 103.707C225.133 104.057 210.089 104.407 191.723 104.407C156.039 104.407 155.34 104.057 167.759 96.3602C185.601 84.9904 196.971 84.9904 214.288 96.0104ZM288.979 170.177C287.579 177.174 280.058 180.322 274.985 176.299C271.312 173.5 267.814 172.801 253.645 172.801C249.272 172.801 174.056 172.451 139.422 174.899C108.986 176.999 125.253 189.068 141.346 191.167C154.815 192.916 263.266 188.718 261.167 192.042C260.117 193.791 225.832 218.979 203.268 237.346C198.545 234.897 110.56 190.118 107.237 190.118C104.263 190.118 102.164 122.248 102.339 122.074C102.864 121.374 204.492 118.575 287.929 118.575C290.728 144.463 292.302 153.384 288.979 170.177ZM203.618 143.764C192.598 154.784 204.667 158.982 245.074 158.282C281.282 157.582 284.081 156.883 277.085 148.836C270.962 141.49 209.915 137.292 203.618 143.764Z" fill="black"/>
</svg>
