<svg width="397" height="397" viewBox="0 0 397 397" fill="none" xmlns="http://www.w3.org/2000/svg">
<path fill-rule="evenodd" clip-rule="evenodd" d="M169.575 51.3118C166.314 52.5799 164.684 54.3913 165.046 56.384C165.59 59.4636 99.106 149.316 82.0776 203.843C76.8242 220.871 85.3387 223.226 124.106 215.799C147.655 211.27 146.749 206.56 131.17 250.399C119.577 282.645 111.063 309.636 107.077 326.121C101.643 347.86 113.055 359.272 141.315 329.744C153.452 317.064 180.988 288.623 245.478 215.074C300.186 152.758 300.005 154.388 256.89 152.758L230.261 151.671C242.761 138.447 289.498 88.0858 303.809 76.3108C318.12 64.3547 322.649 59.4637 303.447 56.7464C281.165 53.4856 205.805 52.2176 183.705 50.2249C178.632 49.6815 172.292 50.2249 169.575 51.3118ZM276.999 69.6082L267.578 77.3979C244.572 96.2379 199.103 150.402 199.103 158.736C199.103 167.793 214.32 166.887 253.63 166.887C195.661 234.095 150.373 286.449 149.286 286.449C148.923 286.449 153.09 274.493 158.706 259.638C179.72 203.299 180.807 192.792 165.952 194.604C140.228 197.684 115.048 201.125 111.606 202.212C108.527 203.118 110.519 198.227 122.113 176.489C142.764 136.997 151.097 125.585 187.328 65.2605C256.347 68.3401 255.623 68.3402 276.999 69.6082Z" fill="black"/>
</svg>
